<?xml version="1.0" standalone="no"?>
<!DOCTYPE svg PUBLIC "-//W3C//DTD SVG 20010904//EN"
 "http://www.w3.org/TR/2001/REC-SVG-20010904/DTD/svg10.dtd">
<svg version="1.0" xmlns="http://www.w3.org/2000/svg"
 width="256.000000pt" height="256.000000pt" viewBox="0 0 256.000000 256.000000"
 preserveAspectRatio="xMidYMid meet">
<metadata>
Created by potrace 1.16, written by Peter Selinger 2001-2019
</metadata>
<g transform="translate(0.000000,256.000000) scale(0.100000,-0.100000)"
fill="#000000" stroke="none">
<path d="M873 1890 c-12 -5 -28 -19 -36 -32 -8 -13 -105 -259 -215 -548 -111
-289 -204 -533 -207 -542 -7 -17 3 -18 112 -18 l120 0 30 88 30 87 208 0 208
0 31 -87 31 -88 118 0 c64 0 117 2 117 4 0 4 -121 322 -351 921 -38 98 -77
187 -87 197 -22 22 -78 31 -109 18z m116 -563 c33 -98 61 -181 61 -183 0 -2
-61 -4 -135 -4 -74 0 -135 2 -135 4 0 3 114 331 125 359 4 10 11 15 15 10 4
-4 35 -88 69 -186z"/>
<path d="M1570 1385 c0 -568 -1 -562 61 -606 33 -24 39 -24 282 -27 l247 -3 0
106 0 105 -190 0 -190 0 0 470 0 470 -105 0 -105 0 0 -515z"/>
</g>
</svg>
